
<svg xmlns="http://www.w3.org/2000/svg" width="512" height="512" viewBox="0 0 512 512">
  <defs>
    <linearGradient id="g1" x1="0" x2="1">
      <stop offset="0" stop-color="#0b5f2a"/>
      <stop offset="1" stop-color="#114d23"/>
    </linearGradient>
    <filter id="shadow" x="-20%" y="-20%" width="140%" height="140%">
      <feDropShadow dx="0" dy="6" stdDeviation="8" flood-color="#000" flood-opacity="0.25"/>
    </filter>
  </defs>
  <rect width="100%" height="100%" rx="60" fill="url(#g1)"/>
  <g transform="translate(40, 40)" filter="url(#shadow)">
    <rect x="0" y="240" rx="28" width="432" height="120" fill="#e6f0e9"/>
    <rect x="0" y="240" rx="28" width="432" height="120" fill-opacity="0.18"/>
    <text x="216" y="190" text-anchor="middle" font-family="Segoe UI, Arial" font-size="80" font-weight="800" fill="#ffd400">LOVE</text>
    <path d="M330 120c18-22 48-22 66 0 19 22 19 55 0 77L256 312 116 197c-19-22-19-55 0-77 18-22 48-22 66 0l74 84 80-84z" fill="#ff3b5e" transform="translate(-60,0) scale(0.28)"/>
    <text x="216" y="320" text-anchor="middle" font-family="Segoe UI, Arial" font-size="72" font-weight="700" fill="#1e7f3e">RUMMY</text>
  </g>
</svg>
